<svg width="16" height="16" viewBox="0 0 16 16" fill="none" xmlns="http://www.w3.org/2000/svg">
<path fill-rule="evenodd" clip-rule="evenodd" d="M4 2C4 3.10457 3.10457 4 2 4C0.895431 4 0 3.10457 0 2C0 0.895431 0.895431 0 2 0C3.10457 0 4 0.895431 4 2ZM0 16V5H4V16H0ZM13.2998 5.12119C13.2954 5.11973 13.2909 5.11825 13.2864 5.11678C13.2616 5.10856 13.2367 5.10033 13.21 5.093C13.162 5.082 13.114 5.073 13.065 5.065C12.875 5.027 12.667 5 12.423 5C10.337 5 9.014 6.517 8.578 7.103V5H5V16H8.578V10C8.578 10 11.282 6.234 12.423 9V16H16V8.577C16 6.915 14.861 5.53 13.324 5.129C13.3159 5.12643 13.3078 5.12382 13.2998 5.12119Z" fill="#B0B8BC"/>
</svg>
