<svg width="480" height="316" viewBox="0 0 480 316" fill="none" xmlns="http://www.w3.org/2000/svg">
<path d="M99.0802 137.533C74.7797 137.644 55 138 55 138C55 138 78.5112 107.094 98.992 118.545C119.473 129.995 143 137.598 143 137.598C143 137.598 123.381 137.421 99.0802 137.533Z" fill="#F2F2F2"/>
<path d="M371 147C373.761 147 376 144.761 376 142C376 139.239 373.761 137 371 137C368.239 137 366 139.239 366 142C366 144.761 368.239 147 371 147Z" fill="#FF6584"/>
<path d="M334 221L372.051 177.227L373.559 178.542L335.507 222.315L334 221Z" fill="#3F3D56"/>
<path d="M373 186C377.418 186 381 182.418 381 178C381 173.582 377.418 170 373 170C368.582 170 365 173.582 365 178C365 182.418 368.582 186 373 186Z" fill="#3F3D56"/>
<path d="M349.286 205C349.286 205 364.646 185.427 345 172L349.286 205Z" fill="#3F3D56"/>
<path d="M94.578 239.405C122.726 291.596 182.467 314 182.467 314C182.467 314 196.57 251.786 168.422 199.595C140.274 147.404 80.5332 125 80.5332 125C80.5332 125 66.4298 187.214 94.578 239.405Z" fill="#3F3D56"/>
<path d="M113.621 222.46C164.431 253.116 184 314.008 184 314.008C184 314.008 121.189 325.196 70.3788 294.54C19.5686 263.884 0 202.992 0 202.992C0 202.992 62.811 191.804 113.621 222.46Z" fill="#111B47"/>
<path d="M315.194 222.73C264.108 252.967 244 313.75 244 313.75C244 313.75 306.719 325.508 357.806 295.27C408.892 265.033 429 204.25 429 204.25C429 204.25 366.281 192.493 315.194 222.73Z" fill="#3F3D56"/>
<path d="M333.739 241.221C305.134 293.135 245.207 315 245.207 315C245.207 315 231.657 252.694 260.261 200.779C288.866 148.865 348.793 127 348.793 127C348.793 127 362.343 189.306 333.739 241.221Z" fill="#111B47"/>
<path d="M229.881 99.04C223.866 93.5973 223.024 84.4508 227.944 78C227.63 78.2946 227.323 78.6005 227.029 78.9257C221.25 85.3193 221.747 95.1887 228.138 100.969C234.528 106.75 244.393 106.254 250.171 99.86C250.465 99.5348 250.739 99.1985 251 98.8562C245.079 104.401 235.898 104.481 229.881 99.04Z" fill="#2F2E41"/>
<path d="M215.5 110C233.449 110 248 95.4493 248 77.5C248 59.5507 233.449 45 215.5 45C197.551 45 183 59.5507 183 77.5C183 95.4493 197.551 110 215.5 110Z" fill="#2F2E41"/>
<path d="M206.238 119.031L207.212 116.526L189.476 131.365L168.038 143.314C168.038 143.314 157.123 101.686 156.344 100.915C155.564 100.144 141.532 70.8497 135.295 84.7259C129.058 98.6021 147.378 106.697 147.378 106.697C147.378 106.697 147.963 157.383 166.673 156.998C185.384 156.612 208.576 139.845 208.966 138.303C209.356 136.762 206.238 119.031 206.238 119.031Z" fill="#FFB8B8"/>
<path d="M211.5 111C222.27 111 231 102.27 231 91.5C231 80.7304 222.27 72 211.5 72C200.73 72 192 80.7304 192 91.5C192 102.27 200.73 111 211.5 111Z" fill="#FFB8B8"/>
<path d="M214.879 105.75C214.879 105.75 219.943 112.318 218.385 113.091C216.827 113.864 207.868 114.25 202.414 120.818C196.961 127.386 209.036 144 209.036 144L255 113.477L236.303 107.295C236.303 107.295 223.449 100.341 223.838 93L214.879 105.75Z" fill="#FFB8B8"/>
<path d="M277 316H225.37C222.445 294.663 221.093 275.109 221.093 275.109C221.093 275.109 220.339 294.778 218.331 316H152C161.403 253.159 205.978 185.016 205.978 185.016C205.978 185.016 206.366 175.733 207.529 174.185C208.693 172.642 200.941 172.255 197.451 160.655C195.323 153.574 197.236 148.941 199.055 146.41C199.679 145.497 200.447 144.692 201.329 144.025C201.329 144.025 202.105 135.908 201.329 134.747C201.23 134.596 201.995 134.062 203.41 133.252C204.589 132.572 206.219 131.698 208.169 130.694C219.338 124.915 240.957 114.691 248.363 111.208C249.987 110.439 250.931 110 250.931 110L264.107 114.639C274.568 118.117 274.568 140.16 274.568 140.16L273.976 141.06L258.164 164.959L248.992 178.829C251.319 180.372 246.67 190.041 246.67 190.041C246.67 190.041 253.295 199.539 258.682 214.035C261.729 222.104 263.807 230.504 264.872 239.06C265.551 244.605 265.685 250.203 265.27 255.774C263.834 274.403 270.218 297.042 277 316Z" fill="#2F2E41"/>
<path d="M263.951 116.434C263.091 115.946 262.063 115.865 261.139 116.214C260.216 116.564 259.492 117.307 259.161 118.246C258.007 121.455 256.838 128.142 257.255 142.048C258.021 167.621 258.404 185.057 258.404 185.057V223.803C258.404 223.803 241.551 261 250.744 261C259.936 261 266.447 231.553 266.447 231.553C266.447 231.553 274.874 186.994 272.192 179.245C272.192 179.245 279.752 125.71 263.951 116.434Z" fill="#FFB8B8"/>
<path d="M209.5 86C218.613 86 226 80.8513 226 74.5C226 68.1487 218.613 63 209.5 63C200.387 63 193 68.1487 193 74.5C193 80.8513 200.387 86 209.5 86Z" fill="#2F2E41"/>
<path d="M236 65C244.837 65 252 57.8366 252 49C252 40.1634 244.837 33 236 33C227.163 33 220 40.1634 220 49C220 57.8366 227.163 65 236 65Z" fill="#2F2E41"/>
<path d="M247 60.3846C238.682 60.3835 231.752 54.1302 231.06 46C231.023 46.4316 231 46.8669 231 47.3077C231 55.9743 238.163 63 247 63C255.837 63 263 55.9743 263 47.3077C263 46.8669 262.977 46.4316 262.94 46C262.248 54.1302 255.318 60.3835 247 60.3846Z" fill="#2F2E41"/>
<path d="M230.807 87.5099C231.614 87.3235 231.967 85.8635 231.596 84.2488C231.224 82.6341 230.269 81.4762 229.462 81.6626C228.654 81.8489 228.301 83.309 228.673 84.9236C229.044 86.5383 229.999 87.6962 230.807 87.5099Z" fill="#FFB8B8"/>
<path d="M230 88C230.552 88 231 87.5523 231 87C231 86.4477 230.552 86 230 86C229.448 86 229 86.4477 229 87C229 87.5523 229.448 88 230 88Z" fill="#F2F2F2"/>
<path fill-rule="evenodd" clip-rule="evenodd" d="M40 147.5C40 151.09 42.9101 154 46.5 154C50.0882 153.996 52.996 151.088 53 147.5C53 143.91 50.0899 141 46.5 141C42.9101 141 40 143.91 40 147.5ZM41 147.5C41 144.462 43.4624 142 46.5 142C49.5361 142.004 51.9965 144.464 52 147.5C52 150.538 49.5376 153 46.5 153C43.4624 153 41 150.538 41 147.5Z" fill="#3F3D56"/>
<path fill-rule="evenodd" clip-rule="evenodd" d="M304 108H318V94H304V108ZM317 107H305V95H317V107Z" fill="#3F3D56"/>
<path d="M436.08 180.533C411.78 180.644 392 181 392 181C392 181 415.511 150.094 435.992 161.545C456.473 172.995 480 180.598 480 180.598C480 180.598 460.381 180.421 436.08 180.533Z" fill="#F2F2F2"/>
<path d="M361.08 75.5326C336.78 75.6437 317 76 317 76C317 76 340.511 45.0942 360.992 56.5446C381.473 67.995 405 75.5975 405 75.5975C405 75.5975 385.381 75.4214 361.08 75.5326Z" fill="#F2F2F2"/>
<path d="M131.358 89.1329L75.2363 60.1611C71.4039 58.1826 69.8946 53.4598 71.8653 49.6123L85.0868 23.7991C85.4748 23.0416 86.1559 22.4774 86.9705 22.239L131.205 9.29041C134.877 8.21537 138.746 10.2124 140.011 13.8366L154.545 55.4575C155.279 57.5587 155.12 59.8704 154.106 61.8506L141.865 85.7487C140.919 87.5963 139.28 88.9909 137.31 89.6255C135.339 90.2602 133.198 90.083 131.358 89.1329Z" fill="#F2F2F2"/>
<path opacity="0.1" d="M133.347 79.576L76.8055 55.3349C74.9836 54.3941 76.6919 55.8402 77.6287 54.0107L84.7363 25L154 60.7674L136.489 82.5108C135.553 84.3404 135.169 80.5168 133.347 79.576Z" fill="black"/>
<path d="M86.1227 62.6423C82.189 60.6307 80.6261 55.8087 82.6319 51.8719L101.7 14.4497C103.705 10.513 108.52 8.95234 112.454 10.9639L149.849 30.0861C153.782 32.0977 155.345 36.9198 153.339 40.8565L134.272 78.2787C132.266 82.2155 127.451 83.7761 123.517 81.7645L86.1227 62.6423Z" fill="#111B47"/>
<path opacity="0.1" d="M145 56.5855L130.458 85L79 58.4139L93.542 30L112.877 55.7877L145 56.5855Z" fill="black"/>
<path d="M112.252 57.6568L87.2877 24.6022C86.9738 24.1866 86.4677 23.9612 85.948 24.0055C85.4282 24.0499 84.9678 24.3577 84.7293 24.8205L70.5238 52.376C69.9499 53.4894 69.8428 54.7846 70.2262 55.9767C70.6096 57.1688 71.4521 58.1601 72.5683 58.7326L134.46 90.4775C135.577 91.05 136.875 91.1568 138.07 90.7743C139.265 90.3919 140.259 89.5516 140.833 88.4382L154.795 61.3547C155.086 60.79 155.066 60.1157 154.741 59.5696C154.416 59.0236 153.833 58.6826 153.196 58.6669L112.252 57.6568Z" fill="#F2F2F2"/>
<path d="M107 14L121.256 21.2638L120.351 23.0472L106.095 15.7833L107 14Z" fill="#F2F2F2"/>
<path d="M102 21L144.768 42.7915L144.316 43.6832L101.547 21.8917L102 21Z" fill="#F2F2F2"/>
<path d="M100 25L142.768 46.7915L142.316 47.6832L99.5473 25.8917L100 25Z" fill="#F2F2F2"/>
<path d="M98 29L140.768 50.7915L140.316 51.6832L97.5473 29.8917L98 29Z" fill="#F2F2F2"/>
<path d="M112.525 12.1272C114.155 8.92864 112.885 5.01072 109.689 3.3763C106.493 1.74188 102.581 3.00988 100.951 6.20846C99.3212 9.40704 100.591 13.325 103.787 14.9594C106.983 16.5938 110.896 15.3258 112.525 12.1272Z" fill="white"/>
<path fill-rule="evenodd" clip-rule="evenodd" d="M99.8874 5.3424C101.908 1.41399 106.733 -0.133058 110.664 1.88698C114.583 3.91605 116.128 8.72806 114.121 12.6576C112.1 16.586 107.275 18.1331 103.345 16.113C99.4142 14.093 97.8664 9.27081 99.8874 5.3424ZM102 6.49534L103.814 12L114 8.82438L113.491 7.28039L104.893 9.96584L103.586 6L102 6.49534Z" fill="#57B894"/>
</svg>
