<svg width="16" height="16" viewBox="0 0 16 16" fill="none" xmlns="http://www.w3.org/2000/svg">
<path d="M16 2.539C15.405 2.8 14.771 2.973 14.11 3.057C14.79 2.651 15.309 2.013 15.553 1.244C14.919 1.622 14.219 1.889 13.473 2.038C12.871 1.397 12.013 1 11.077 1C9.261 1 7.799 2.474 7.799 4.281C7.799 4.541 7.821 4.791 7.875 5.029C5.148 4.896 2.735 3.589 1.114 1.598C0.831 2.089 0.665 2.651 0.665 3.256C0.665 4.392 1.25 5.399 2.122 5.982C1.595 5.972 1.078 5.819 0.64 5.578C0.64 5.588 0.64 5.601 0.64 5.614C0.64 7.208 1.777 8.532 3.268 8.837C3.001 8.91 2.71 8.945 2.408 8.945C2.198 8.945 1.986 8.933 1.787 8.889C2.212 10.188 3.418 11.143 4.852 11.174C3.736 12.047 2.319 12.573 0.785 12.573C0.516 12.573 0.258 12.561 0 12.528C1.453 13.465 3.175 14 5.032 14C11.068 14 14.368 9 14.368 4.666C14.368 4.521 14.363 4.381 14.356 4.242C15.007 3.78 15.554 3.203 16 2.539Z" fill="#B0B8BC"/>
</svg>
