<svg width="16" height="16" viewBox="0 0 16 16" fill="none" xmlns="http://www.w3.org/2000/svg">
<path fill-rule="evenodd" clip-rule="evenodd" d="M13.456 3.092C14.415 3.146 14.886 3.288 15.32 4.06C15.772 4.831 16 6.159 16 8.498V8.501V8.506C16 10.834 15.772 12.172 15.321 12.935C14.887 13.707 14.416 13.847 13.457 13.912C12.498 13.967 10.089 14 8.002 14C5.911 14 3.501 13.967 2.543 13.911C1.586 13.846 1.115 13.706 0.677 12.934C0.23 12.171 0 10.833 0 8.505V8.503V8.5V8.497C0 6.159 0.23 4.831 0.677 4.06C1.115 3.287 1.587 3.146 2.544 3.091C3.501 3.027 5.911 3 8.002 3C10.089 3 12.498 3.027 13.456 3.092ZM11 9L6 6V12L11 9Z" fill="#B0B8BC"/>
</svg>
