<svg width="84" height="48" viewBox="0 0 84 48" fill="none" xmlns="http://www.w3.org/2000/svg">
<path d="M15.1943 0.764648V8.06445H11.4346V0.764648H15.1943ZM14.7305 40.6328V47.1758H10.9951V40.6328H14.7305ZM18.417 32.7471C18.417 31.8031 18.2217 30.9811 17.8311 30.2812C17.4567 29.5651 16.8382 28.9222 15.9756 28.3525C15.113 27.7666 13.9574 27.2214 12.5088 26.7168C10.4255 25.9844 8.60254 25.1624 7.04004 24.251C5.49382 23.3232 4.28939 22.1839 3.42676 20.833C2.5804 19.4658 2.15723 17.765 2.15723 15.7305C2.15723 13.7285 2.61296 11.9951 3.52441 10.5303C4.45215 9.06543 5.73796 7.93424 7.38184 7.13672C9.02572 6.33919 10.9463 5.94043 13.1436 5.94043C14.8363 5.94043 16.3581 6.19271 17.709 6.69727C19.0762 7.20182 20.2399 7.94238 21.2002 8.91895C22.1605 9.89551 22.8929 11.0999 23.3975 12.5322C23.9183 13.9482 24.1787 15.5758 24.1787 17.415H18.3193C18.3193 16.3734 18.1973 15.4456 17.9531 14.6318C17.7253 13.8018 17.3835 13.1019 16.9277 12.5322C16.472 11.9463 15.9186 11.4987 15.2676 11.1895C14.6328 10.8802 13.9085 10.7256 13.0947 10.7256C11.9391 10.7256 10.987 10.9453 10.2383 11.3848C9.48958 11.8079 8.9362 12.3939 8.57812 13.1426C8.23633 13.8913 8.06543 14.7458 8.06543 15.7061C8.06543 16.6338 8.24447 17.4476 8.60254 18.1475C8.96061 18.8473 9.57096 19.4821 10.4336 20.0518C11.3125 20.6051 12.5169 21.1667 14.0469 21.7363C16.1465 22.485 17.9613 23.3232 19.4912 24.251C21.0374 25.1624 22.2256 26.2936 23.0557 27.6445C23.902 28.9792 24.3252 30.6637 24.3252 32.6982C24.3252 34.7979 23.8369 36.5801 22.8604 38.0449C21.9001 39.5098 20.5492 40.6247 18.8076 41.3896C17.0824 42.1383 15.0723 42.5127 12.7773 42.5127C11.3288 42.5127 9.88835 42.3255 8.45605 41.9512C7.04004 41.5605 5.75423 40.9258 4.59863 40.0469C3.44303 39.168 2.52344 38.0042 1.83984 36.5557C1.15625 35.0908 0.814453 33.3005 0.814453 31.1846H6.72266C6.72266 32.4541 6.89355 33.512 7.23535 34.3584C7.57715 35.2048 8.04102 35.8721 8.62695 36.3604C9.21289 36.8486 9.86393 37.1986 10.5801 37.4102C11.3125 37.6217 12.0449 37.7275 12.7773 37.7275C13.998 37.7275 15.0234 37.5241 15.8535 37.1172C16.6999 36.694 17.3346 36.1081 17.7578 35.3594C18.1973 34.5944 18.417 33.7236 18.417 32.7471ZM54.9639 29.3291V34.0166H29.3291L29.1338 30.4766L44.4658 6.45312H49.1777L44.0752 15.1934L35.2617 29.3291H54.9639ZM50.5205 6.45312V42H44.6367V6.45312H50.5205ZM83.0635 21.248V27.0586C83.0635 29.8418 82.7868 32.2181 82.2334 34.1875C81.6963 36.1406 80.915 37.7275 79.8896 38.9482C78.8643 40.1689 77.6354 41.0641 76.2031 41.6338C74.7871 42.2035 73.2002 42.4883 71.4424 42.4883C70.0426 42.4883 68.7406 42.3092 67.5361 41.9512C66.348 41.5931 65.2738 41.0316 64.3135 40.2666C63.3532 39.5016 62.5312 38.5169 61.8477 37.3125C61.1803 36.0918 60.6595 34.6351 60.2852 32.9424C59.9271 31.2497 59.748 29.2884 59.748 27.0586V21.248C59.748 18.4486 60.0247 16.0885 60.5781 14.168C61.1315 12.2311 61.9209 10.6605 62.9463 9.45605C63.9717 8.23535 65.1924 7.34831 66.6084 6.79492C68.0407 6.24154 69.6357 5.96484 71.3936 5.96484C72.8096 5.96484 74.1117 6.14388 75.2998 6.50195C76.5042 6.84375 77.5785 7.389 78.5225 8.1377C79.4827 8.88639 80.2965 9.86296 80.9639 11.0674C81.6475 12.2555 82.1683 13.696 82.5264 15.3887C82.8844 17.0651 83.0635 19.0182 83.0635 21.248ZM77.1797 27.8887V20.3691C77.1797 18.9531 77.0983 17.708 76.9355 16.6338C76.7728 15.5433 76.5286 14.6237 76.2031 13.875C75.8939 13.11 75.5033 12.4915 75.0312 12.0195C74.5592 11.5312 74.0221 11.1813 73.4199 10.9697C72.8177 10.7419 72.1423 10.6279 71.3936 10.6279C70.4821 10.6279 69.6683 10.807 68.9521 11.165C68.236 11.5068 67.6338 12.0602 67.1455 12.8252C66.6572 13.5902 66.2829 14.5993 66.0225 15.8525C65.7783 17.0895 65.6562 18.5951 65.6562 20.3691V27.8887C65.6562 29.321 65.7376 30.5824 65.9004 31.6729C66.0632 32.7633 66.3073 33.6992 66.6328 34.4805C66.9583 35.2454 67.349 35.8802 67.8047 36.3848C68.2767 36.873 68.8138 37.2311 69.416 37.459C70.0345 37.6868 70.71 37.8008 71.4424 37.8008C72.3701 37.8008 73.1921 37.6217 73.9082 37.2637C74.6243 36.9056 75.2266 36.3359 75.7148 35.5547C76.2031 34.7572 76.5693 33.7236 76.8135 32.4541C77.0576 31.1846 77.1797 29.6628 77.1797 27.8887Z" fill="#222F65"/>
</svg>
